<svg width="25" height="24" viewBox="0 0 25 24" fill="none" xmlns="http://www.w3.org/2000/svg">
<mask id="mask0_3_263" style="mask-type:alpha" maskUnits="userSpaceOnUse" x="0" y="0" width="25" height="24">
<rect x="0.5" width="24" height="24" fill="#D9D9D9"/>
</mask>
<g mask="url(#mask0_3_263)">
<path d="M19.5 21L12.5 14L10.15 16.35C10.2833 16.6 10.375 16.8667 10.425 17.15C10.475 17.4333 10.5 17.7167 10.5 18C10.5 19.1 10.1083 20.0417 9.325 20.825C8.54167 21.6083 7.6 22 6.5 22C5.4 22 4.45833 21.6083 3.675 20.825C2.89167 20.0417 2.5 19.1 2.5 18C2.5 16.9 2.89167 15.9583 3.675 15.175C4.45833 14.3917 5.4 14 6.5 14C6.78333 14 7.06667 14.025 7.35 14.075C7.63333 14.125 7.9 14.2167 8.15 14.35L10.5 12L8.15 9.65C7.9 9.78333 7.63333 9.875 7.35 9.925C7.06667 9.975 6.78333 10 6.5 10C5.4 10 4.45833 9.60833 3.675 8.825C2.89167 8.04167 2.5 7.1 2.5 6C2.5 4.9 2.89167 3.95833 3.675 3.175C4.45833 2.39167 5.4 2 6.5 2C7.6 2 8.54167 2.39167 9.325 3.175C10.1083 3.95833 10.5 4.9 10.5 6C10.5 6.28333 10.475 6.56667 10.425 6.85C10.375 7.13333 10.2833 7.4 10.15 7.65L22.5 20V21H19.5ZM15.5 11L13.5 9L19.5 3H22.5V4L15.5 11ZM6.5 8C7.05 8 7.52083 7.80417 7.9125 7.4125C8.30417 7.02083 8.5 6.55 8.5 6C8.5 5.45 8.30417 4.97917 7.9125 4.5875C7.52083 4.19583 7.05 4 6.5 4C5.95 4 5.47917 4.19583 5.0875 4.5875C4.69583 4.97917 4.5 5.45 4.5 6C4.5 6.55 4.69583 7.02083 5.0875 7.4125C5.47917 7.80417 5.95 8 6.5 8ZM12.5 12.5C12.6333 12.5 12.75 12.45 12.85 12.35C12.95 12.25 13 12.1333 13 12C13 11.8667 12.95 11.75 12.85 11.65C12.75 11.55 12.6333 11.5 12.5 11.5C12.3667 11.5 12.25 11.55 12.15 11.65C12.05 11.75 12 11.8667 12 12C12 12.1333 12.05 12.25 12.15 12.35C12.25 12.45 12.3667 12.5 12.5 12.5ZM6.5 20C7.05 20 7.52083 19.8042 7.9125 19.4125C8.30417 19.0208 8.5 18.55 8.5 18C8.5 17.45 8.30417 16.9792 7.9125 16.5875C7.52083 16.1958 7.05 16 6.5 16C5.95 16 5.47917 16.1958 5.0875 16.5875C4.69583 16.9792 4.5 17.45 4.5 18C4.5 18.55 4.69583 19.0208 5.0875 19.4125C5.47917 19.8042 5.95 20 6.5 20Z" fill="#1C1B1F"/>
</g>
</svg>
