<svg width="25" height="24" viewBox="0 0 25 24" fill="none" xmlns="http://www.w3.org/2000/svg">
<mask id="mask0_3_299" style="mask-type:alpha" maskUnits="userSpaceOnUse" x="0" y="0" width="25" height="24">
<rect x="0.5" width="24" height="24" fill="#D9D9D9"/>
</mask>
<g mask="url(#mask0_3_299)">
<path d="M5.5 20C4.95 20 4.47917 19.8042 4.0875 19.4125C3.69583 19.0208 3.5 18.55 3.5 18V6C3.5 5.45 3.69583 4.97917 4.0875 4.5875C4.47917 4.19583 4.95 4 5.5 4H19.5C20.05 4 20.5208 4.19583 20.9125 4.5875C21.3042 4.97917 21.5 5.45 21.5 6V18C21.5 18.55 21.3042 19.0208 20.9125 19.4125C20.5208 19.8042 20.05 20 19.5 20H5.5Z" fill="#E80D10"/>
</g>
</svg>
