<svg width="25" height="24" viewBox="0 0 25 24" fill="none" xmlns="http://www.w3.org/2000/svg">
<mask id="mask0_7_244" style="mask-type:alpha" maskUnits="userSpaceOnUse" x="0" y="0" width="25" height="24">
<rect x="0.5" width="24" height="24" fill="#D9D9D9"/>
</mask>
<g mask="url(#mask0_7_244)">
<path d="M5.5 4V10.025V10V20V4ZM5.5 22C4.95 22 4.47917 21.8042 4.0875 21.4125C3.69583 21.0208 3.5 20.55 3.5 20V4C3.5 3.45 3.69583 2.97917 4.0875 2.5875C4.47917 2.19583 4.95 2 5.5 2H13.5L19.5 8V10.5C19.1833 10.3667 18.8583 10.2625 18.525 10.1875C18.1917 10.1125 17.85 10.0583 17.5 10.025V9H12.5V4H5.5V20H11.525C11.7917 20.4 12.0917 20.7708 12.425 21.1125C12.7583 21.4542 13.125 21.75 13.525 22H5.5ZM17 19C17.7 19 18.2917 18.7583 18.775 18.275C19.2583 17.7917 19.5 17.2 19.5 16.5C19.5 15.8 19.2583 15.2083 18.775 14.725C18.2917 14.2417 17.7 14 17 14C16.3 14 15.7083 14.2417 15.225 14.725C14.7417 15.2083 14.5 15.8 14.5 16.5C14.5 17.2 14.7417 17.7917 15.225 18.275C15.7083 18.7583 16.3 19 17 19ZM22.1 23L19.4 20.3C19.05 20.5333 18.6708 20.7083 18.2625 20.825C17.8542 20.9417 17.4333 21 17 21C15.75 21 14.6875 20.5625 13.8125 19.6875C12.9375 18.8125 12.5 17.75 12.5 16.5C12.5 15.25 12.9375 14.1875 13.8125 13.3125C14.6875 12.4375 15.75 12 17 12C18.25 12 19.3125 12.4375 20.1875 13.3125C21.0625 14.1875 21.5 15.25 21.5 16.5C21.5 16.9333 21.4417 17.3542 21.325 17.7625C21.2083 18.1708 21.0333 18.55 20.8 18.9L23.5 21.6L22.1 23Z" fill="#1C1B1F"/>
</g>
</svg>
