<svg width="35" height="34" viewBox="0 0 35 34" fill="none" xmlns="http://www.w3.org/2000/svg">
<mask id="mask0_3_275" style="mask-type:alpha" maskUnits="userSpaceOnUse" x="0" y="0" width="35" height="34">
<rect x="0.529437" y="17" width="24" height="24" transform="rotate(-45 0.529437 17)" fill="#D9D9D9"/>
</mask>
<g mask="url(#mask0_3_275)">
<path d="M22.4497 24.7782C22.2494 24.9785 22.0137 25.0787 21.7426 25.0787C21.4716 25.0787 21.2359 24.9785 21.0355 24.7782L12.5503 16.2929L9.01472 19.8284C8.03655 18.8503 7.54747 17.6718 7.54747 16.2929C7.54747 14.914 8.03655 13.7355 9.01472 12.7574L13.2574 8.51472L15.3787 10.636V6.3934L16.7929 4.97919L22.4497 10.636L21.0355 12.0503H16.7929L25.2782 20.5355C25.4785 20.7359 25.5787 20.9716 25.5787 21.2426C25.5787 21.5137 25.4785 21.7494 25.2782 21.9497L22.4497 24.7782ZM21.7426 22.6569L23.1569 21.2426L18.9142 17L17.5 18.4142L21.7426 22.6569ZM16.0858 17L17.5 15.5858L13.2574 11.3431L10.4289 14.1716C10.1225 14.478 9.89566 14.8286 9.74834 15.2234C9.60103 15.6182 9.53916 16.0277 9.56273 16.452L12.5503 13.4645L16.0858 17Z" fill="#1C1B1F"/>
</g>
</svg>
