<svg width="25" height="24" viewBox="0 0 25 24" fill="none" xmlns="http://www.w3.org/2000/svg">
<mask id="mask0_9_275" style="mask-type:alpha" maskUnits="userSpaceOnUse" x="0" y="0" width="25" height="24">
<rect x="0.5" width="24" height="24" fill="#D9D9D9"/>
</mask>
<g mask="url(#mask0_9_275)">
<path d="M3.775 17.7L7.9 6.7H9.875L14 17.7H12.1L11.125 14.9H6.675L5.675 17.7H3.775ZM7.25 13.3H10.525L8.925 8.75H8.825L7.25 13.3ZM17.125 17.95C16.275 17.95 15.6 17.7208 15.1 17.2625C14.6 16.8042 14.35 16.2 14.35 15.45C14.35 14.7167 14.6375 14.1125 15.2125 13.6375C15.7875 13.1625 16.525 12.925 17.425 12.925C17.8083 12.925 18.1833 12.9583 18.55 13.025C18.9167 13.0917 19.2333 13.1833 19.5 13.3V13C19.5 12.5167 19.3292 12.125 18.9875 11.825C18.6458 11.525 18.1917 11.375 17.625 11.375C17.2417 11.375 16.8917 11.4542 16.575 11.6125C16.2583 11.7708 15.9833 12 15.75 12.3L14.575 11.425C14.975 10.9417 15.4292 10.5833 15.9375 10.35C16.4458 10.1167 17.0167 10 17.65 10C18.8 10 19.6583 10.2708 20.225 10.8125C20.7917 11.3542 21.075 12.1667 21.075 13.25V17.7H19.5V16.775H19.4C19.1667 17.1583 18.85 17.45 18.45 17.65C18.05 17.85 17.6083 17.95 17.125 17.95ZM17.425 16.6C18.0083 16.6 18.5042 16.4 18.9125 16C19.3208 15.6 19.525 15.1333 19.525 14.6C19.2917 14.4667 19.0125 14.3625 18.6875 14.2875C18.3625 14.2125 18.0417 14.175 17.725 14.175C17.1917 14.175 16.775 14.2917 16.475 14.525C16.175 14.7583 16.025 15.0667 16.025 15.45C16.025 15.7833 16.1583 16.0583 16.425 16.275C16.6917 16.4917 17.025 16.6 17.425 16.6Z" fill="#1C1B1F"/>
</g>
</svg>
